<svg width="14" height="14" viewBox="0 0 14 14" fill="none" xmlns="http://www.w3.org/2000/svg">
<path d="M10.5091 6.82736L12.9018 4.43468L12.9025 4.43398C13.2324 4.10414 13.3974 3.93916 13.4592 3.74885C13.5136 3.58133 13.5136 3.40088 13.4592 3.23337C13.3973 3.04292 13.2321 2.87769 12.9018 2.54738L11.4506 1.09625C11.1217 0.767352 10.9569 0.602571 10.7669 0.540824C10.5993 0.486392 10.4189 0.486392 10.2514 0.540824C10.0612 0.602613 9.8962 0.767585 9.5669 1.09695L9.5654 1.09837L7.17272 3.49106L0.5 10.1637V13.5H3.83636L10.5091 6.82736ZM7.17272 3.49106L10.5091 6.82736" stroke="#CDCDCD" stroke-linecap="round" stroke-linejoin="round"/>
</svg>
